<?xml version="1.0" encoding="UTF-8"?>
<svg version="1.1" xmlns="http://www.w3.org/2000/svg" width="456" height="456">
<path d="M0 0 C1.14980244 -0.00507454 2.29960489 -0.01014909 3.48424983 -0.0153774 C4.75834437 -0.01587516 6.0324389 -0.01637292 7.34514236 -0.01688576 C8.70377772 -0.02089907 10.06241188 -0.02533707 11.42104459 -0.03016531 C15.16746071 -0.04215128 18.91386394 -0.04778394 22.66029549 -0.05234647 C26.69586791 -0.05829489 30.73142485 -0.0699066 34.76698685 -0.08063698 C44.51931892 -0.10517807 54.27165613 -0.11979044 64.02400959 -0.13269705 C66.77735069 -0.13640767 69.53069128 -0.14038101 72.28403187 -0.14444971 C89.37278047 -0.16968442 106.46152984 -0.19174297 123.55029297 -0.20417786 C127.51000598 -0.20710767 131.46971897 -0.21006932 135.42943192 -0.21308327 C136.41362992 -0.21382932 137.39782793 -0.21457537 138.41185012 -0.21534403 C154.36064484 -0.22800172 170.30932817 -0.26122934 186.2580708 -0.3028851 C202.62300343 -0.3452784 218.987879 -0.36886986 235.35286641 -0.37409842 C244.54499614 -0.37751546 253.7369518 -0.38930499 262.92902756 -0.42220116 C270.75639997 -0.45016706 278.58356265 -0.46121627 286.41098115 -0.4500057 C290.40573162 -0.44481014 294.40004265 -0.44776331 298.39472961 -0.47247124 C302.05164744 -0.49490149 305.70780857 -0.49427337 309.36473909 -0.47526737 C311.31474247 -0.47112753 313.26474998 -0.49165909 315.21464038 -0.51305425 C324.67804018 -0.42682462 324.67804018 -0.42682462 328.38169098 2.5500145 C331.71067104 6.40287479 332.00834832 8.84247237 331.97630692 13.80888939 C331.37148913 17.72705675 329.44816434 19.44060255 326.61693192 22.13701439 C324.02157993 23.43469038 322.1417217 23.26724108 319.23386383 23.27402878 C318.08406139 23.27910332 316.93425894 23.28417786 315.749614 23.28940618 C313.8384722 23.29015282 313.8384722 23.29015282 311.88872147 23.29091454 C310.53008611 23.29492785 309.17145195 23.29936585 307.81281924 23.30419409 C304.06640312 23.31618006 300.31999989 23.32181271 296.57356834 23.32637525 C292.53799593 23.33232367 288.50243898 23.34393538 284.46687698 23.35466576 C274.71454491 23.37920685 264.96220771 23.39381922 255.20985425 23.40672582 C252.45651315 23.41043645 249.70317256 23.41440978 246.94983196 23.41847849 C229.86108336 23.4437132 212.77233399 23.46577175 195.68357086 23.47820663 C191.72385785 23.48113645 187.76414486 23.4840981 183.80443192 23.48711205 C182.82023391 23.4878581 181.8360359 23.48860415 180.82201371 23.4893728 C164.87321899 23.5020305 148.92453566 23.53525812 132.97579303 23.57691388 C116.6108604 23.61930717 100.24598483 23.64289864 83.88099742 23.6481272 C74.68886769 23.65154423 65.49691204 23.66333377 56.30483627 23.69622993 C48.47746386 23.72419584 40.65030118 23.73524505 32.82288268 23.72403447 C28.82813221 23.71883892 24.83382118 23.72179209 20.83913422 23.74650002 C17.18221639 23.76893027 13.52605526 23.76830214 9.86912474 23.74929614 C7.91912136 23.74515631 5.96911385 23.76568787 4.01922345 23.78708303 C-5.44417635 23.70085339 -5.44417635 23.70085339 -9.14782715 20.72401428 C-12.47680721 16.87115399 -12.77448448 14.43155641 -12.74244308 9.46513939 C-12.1376253 5.54697202 -10.21430051 3.83342623 -7.38306808 1.13701439 C-4.7877161 -0.1606616 -2.90785787 0.0067877 0 0 Z " fill="#FF9090" transform="translate(68.3830680847168,212.8629856109619)"/>
<path d="M0 0 C0.80107681 -0.00846954 1.60215363 -0.01693909 2.42750549 -0.02566528 C5.04998052 -0.04888151 7.67186402 -0.05006155 10.29443359 -0.04882812 C12.12950878 -0.05593626 13.96458175 -0.06363621 15.7996521 -0.07189941 C19.63423862 -0.08530681 23.46861933 -0.08692863 27.30322266 -0.08105469 C32.21054416 -0.07514557 37.11688078 -0.10581738 42.02401161 -0.14617157 C45.8090647 -0.17204299 49.59387993 -0.17492681 53.37900925 -0.17127991 C55.18828187 -0.17296999 56.99756562 -0.1826018 58.80675125 -0.20042419 C61.3366811 -0.22261646 63.86460697 -0.21291414 66.39453125 -0.1953125 C67.50748817 -0.21520737 67.50748817 -0.21520737 68.64292908 -0.23550415 C74.3708514 -0.1431337 76.69675484 1.49588699 80.56787109 5.41992188 C82.3100882 8.9043561 82.15462263 12.61879233 81.56787109 16.41992188 C79.8653539 19.4946171 77.75560601 21.82605442 74.56787109 23.41992188 C72.15879315 23.5263868 69.77740531 23.57406583 67.36767578 23.57763672 C66.25515694 23.5852578 66.25515694 23.5852578 65.12016296 23.59303284 C63.50669288 23.60374537 61.89320785 23.61236208 60.27971649 23.61915207 C57.72385379 23.63093263 55.1681607 23.65038455 52.61236572 23.67227173 C45.34449938 23.73390673 38.07664893 23.78788496 30.80859375 23.82128906 C26.36465906 23.84226462 21.92103115 23.87759453 17.47727203 23.92204666 C15.78528715 23.936188 14.09324797 23.94492489 12.40120697 23.94810104 C10.02902782 23.95302395 7.65765842 23.97621762 5.28564453 24.00341797 C4.59035141 24.00041183 3.89505829 23.9974057 3.17869568 23.99430847 C-1.39448301 24.07196695 -4.62901309 24.84895164 -8.43212891 27.41992188 C-10.84730443 31.35550555 -10.70858365 35.46666497 -10.67163086 39.96069336 C-10.67364502 40.70281067 -10.67565918 41.44492798 -10.67773438 42.20953369 C-10.6812693 43.81477423 -10.68052587 45.42002872 -10.67595863 47.02526665 C-10.67034876 49.56885121 -10.67955092 52.11198261 -10.69316101 54.65553284 C-10.73022214 61.88504095 -10.74882645 69.1143936 -10.73754883 76.34399414 C-10.73168941 80.77203164 -10.74999592 85.19942945 -10.78343773 89.6273365 C-10.79137774 91.31096674 -10.79013369 92.99466695 -10.77941322 94.67828178 C-10.76504359 97.03614465 -10.78139698 99.39200294 -10.80444336 101.74975586 C-10.78679176 102.78562584 -10.78679176 102.78562584 -10.76878357 103.84242249 C-10.87460618 109.38156156 -12.66371461 111.65537693 -16.43212891 115.41992188 C-19.89186201 117.14978843 -23.64923689 116.90423677 -27.43212891 116.41992188 C-30.76813258 114.36153663 -32.25834651 112.68059547 -34.43212891 109.41992188 C-34.63671069 106.779736 -34.72584301 104.24416111 -34.72265625 101.60302734 C-34.72937347 100.80749954 -34.7360907 100.01197174 -34.74301147 99.19233704 C-34.76203695 96.55719785 -34.76591873 93.92231302 -34.76806641 91.28710938 C-34.77449399 89.45207617 -34.78122232 87.61704399 -34.78823853 85.78201294 C-34.80022465 81.93017199 -34.80391826 78.07842079 -34.80273438 74.2265625 C-34.80253175 69.30721418 -34.82976885 64.38844727 -34.86427879 59.46923637 C-34.88660127 55.67550046 -34.89057019 51.88190291 -34.88951492 48.08810806 C-34.89186534 46.27573784 -34.90065715 44.46336347 -34.91617966 42.6510582 C-35.05658333 24.55549566 -35.05658333 24.55549566 -30.43212891 17.41992188 C-29.96291016 16.62199219 -29.49369141 15.8240625 -29.01025391 15.00195312 C-21.58226523 5.10525057 -12.42178255 -0.04933214 0 0 Z " fill="#434751" transform="translate(90.43212890625,55.580078125)"/>
<path d="M0 0 C3.33600367 2.05838525 4.8262176 3.7393264 7 7 C7.20458178 9.64018587 7.2937141 12.17576077 7.29052734 14.81689453 C7.29724457 15.61242233 7.30396179 16.40795013 7.31088257 17.22758484 C7.32990804 19.86272402 7.33378982 22.49760886 7.3359375 25.1328125 C7.34236508 26.96784571 7.34909342 28.80287788 7.35610962 30.63790894 C7.36809574 34.48974988 7.37178935 38.34150109 7.37060547 42.19335938 C7.37040285 47.11270769 7.39763994 52.03147461 7.43214989 56.9506855 C7.45447236 60.74442141 7.45844128 64.53801897 7.45738602 68.33181381 C7.45973643 70.14418404 7.46852825 71.9565584 7.48405075 73.76886368 C7.62445443 91.86442622 7.62445443 91.86442622 3 99 C2.53078125 99.79792969 2.0615625 100.59585938 1.578125 101.41796875 C-3.9234278 108.74797881 -10.12178053 113.40339491 -19 116 C-21.81945727 116.39547699 -24.5879649 116.43121725 -27.43212891 116.41992188 C-28.23320572 116.42839142 -29.03428253 116.43686096 -29.8596344 116.44558716 C-32.48210943 116.46880338 -35.10399293 116.46998342 -37.7265625 116.46875 C-39.56163768 116.47585813 -41.39671066 116.48355808 -43.23178101 116.49182129 C-47.06636753 116.50522869 -50.90074824 116.50685051 -54.73535156 116.50097656 C-59.64267307 116.49506744 -64.54900968 116.52573926 -69.45614052 116.56609344 C-73.24119361 116.59196487 -77.02600883 116.59484869 -80.81113815 116.59120178 C-82.62041078 116.59289187 -84.42969452 116.60252367 -86.23888016 116.62034607 C-88.76881 116.64253834 -91.29673588 116.63283601 -93.82666016 116.61523438 C-94.56863144 116.62849762 -95.31060272 116.64176086 -96.07505798 116.65542603 C-101.8029803 116.56305558 -104.12888375 114.92403488 -108 111 C-109.74221711 107.51556578 -109.58675154 103.80112955 -109 100 C-107.29748281 96.92530477 -105.18773492 94.59386746 -102 93 C-99.59092205 92.89353507 -97.20953422 92.84585605 -94.79980469 92.84228516 C-94.05812546 92.83720444 -93.31644623 92.83212372 -92.55229187 92.82688904 C-90.93882179 92.8161765 -89.32533676 92.8075598 -87.7118454 92.80076981 C-85.15598269 92.78898925 -82.60028961 92.76953732 -80.04449463 92.74765015 C-72.77662829 92.68601515 -65.50877784 92.63203692 -58.24072266 92.59863281 C-53.79678797 92.57765725 -49.35316006 92.54232734 -44.90940094 92.49787521 C-43.21741606 92.48373387 -41.52537687 92.47499699 -39.83333588 92.47182083 C-37.46115672 92.46689793 -35.08978733 92.44370425 -32.71777344 92.41650391 C-32.02248032 92.41951004 -31.32718719 92.42251617 -30.61082458 92.4256134 C-26.0376459 92.34795492 -22.80311581 91.57097024 -19 89 C-16.58482447 85.06441632 -16.72354525 80.9532569 -16.76049805 76.45922852 C-16.75848389 75.71711121 -16.75646973 74.9749939 -16.75439453 74.21038818 C-16.7508596 72.60514765 -16.75160304 70.99989316 -16.75617027 69.39465523 C-16.76178014 66.85107067 -16.75257798 64.30793927 -16.7389679 61.76438904 C-16.70190677 54.53488092 -16.68330246 47.30552827 -16.69458008 40.07592773 C-16.7004395 35.64789023 -16.68213299 31.22049243 -16.64869118 26.79258537 C-16.64075117 25.10895513 -16.64199521 23.42525492 -16.65271568 21.74164009 C-16.66708532 19.38377723 -16.65073192 17.02791894 -16.62768555 14.67016602 C-16.64533714 13.63429604 -16.64533714 13.63429604 -16.66334534 12.57749939 C-16.55752272 7.03836032 -14.7684143 4.76454495 -11 1 C-7.5402669 -0.72986655 -3.78289201 -0.48431489 0 0 Z " fill="#434751" transform="translate(393,284)"/>
<path d="M0 0 C3.07469523 1.70251719 5.40613254 3.81226508 7 7 C7.10646493 9.40907795 7.15414395 11.79046578 7.15771484 14.20019531 C7.16533592 15.31271416 7.16533592 15.31271416 7.17311096 16.44770813 C7.1838235 18.06117821 7.1924402 19.67466324 7.19923019 21.2881546 C7.21101075 23.84401731 7.23046268 26.39971039 7.25234985 28.95550537 C7.31398485 36.22337171 7.36796308 43.49122216 7.40136719 50.75927734 C7.42234275 55.20321203 7.45767266 59.64683994 7.50212479 64.09059906 C7.51626613 65.78258394 7.52500301 67.47462313 7.52817917 69.16666412 C7.53310207 71.53884328 7.55629575 73.91021267 7.58349609 76.28222656 C7.58048996 76.97751968 7.57748383 77.67281281 7.5743866 78.38917542 C7.65204508 82.9623541 8.42902976 86.19688419 11 90 C14.93558368 92.41517553 19.0467431 92.27645475 23.54077148 92.23950195 C24.65394745 92.24252319 24.65394745 92.24252319 25.78961182 92.24560547 C27.39485235 92.2491404 29.00010684 92.24839696 30.60534477 92.24382973 C33.14892933 92.23821986 35.69206073 92.24742202 38.23561096 92.2610321 C45.46511908 92.29809323 52.69447173 92.31669754 59.92407227 92.30541992 C64.35210977 92.2995605 68.77950757 92.31786701 73.20741463 92.35130882 C74.89104487 92.35924883 76.57474508 92.35800479 78.25835991 92.34728432 C80.61622277 92.33291468 82.97208106 92.34926808 85.32983398 92.37231445 C86.02041397 92.36054672 86.71099396 92.34877899 87.42250061 92.33665466 C92.96163968 92.44247728 95.23545505 94.2315857 99 98 C100.74221711 101.48443422 100.58675154 105.19887045 100 109 C98.29748281 112.07469523 96.18773492 114.40613254 93 116 C90.42898155 116.11382506 87.88441923 116.1678204 85.3125 116.17700195 C84.12183678 116.18685875 84.12183678 116.18685875 82.90711975 116.19691467 C80.27141222 116.21667505 77.63576194 116.22832052 75 116.23828125 C74.09861298 116.24235678 73.19722595 116.2464323 72.26852417 116.25063133 C67.49135567 116.2715105 62.714216 116.28580037 57.93701172 116.29516602 C53.01888785 116.30619343 48.10122107 116.34054529 43.18325806 116.38033772 C39.38949793 116.40658798 35.59584489 116.41486562 31.80200195 116.41844749 C29.99044736 116.4232971 28.17889702 116.43486434 26.36743164 116.45348549 C13.17732373 116.58057162 3.09059612 115.8332396 -6.953125 106.359375 C-13.23077537 99.12330472 -16.1396308 91.58262915 -16.19287109 82.13549805 C-16.20104858 81.33515137 -16.20922607 80.53480469 -16.21765137 79.71020508 C-16.24247055 77.06071721 -16.25901184 74.41128276 -16.2734375 71.76171875 C-16.27876118 70.8562562 -16.28408485 69.95079365 -16.28956985 69.01789284 C-16.31628545 64.22588574 -16.33566603 59.43390456 -16.35009766 54.6418457 C-16.36344206 50.67741855 -16.39130593 46.71350549 -16.43212891 42.74926758 C-16.48144028 37.96062201 -16.50621668 33.17244309 -16.51332474 28.38355446 C-16.52003724 26.56029988 -16.53525934 24.7370557 -16.55921555 22.91394615 C-16.5908668 20.35964139 -16.59090455 17.80713526 -16.58349609 15.25268555 C-16.59990143 14.50285904 -16.61630676 13.75303253 -16.63320923 12.98048401 C-16.56493625 7.21654186 -14.95309293 4.88922061 -11 1 C-7.51556578 -0.74221711 -3.80112955 -0.58675154 0 0 Z " fill="#434751" transform="translate(72,284)"/>
<path d="M0 0 C0.79377548 -0.0065712 1.58755096 -0.0131424 2.40538025 -0.01991272 C5.04108778 -0.0396731 7.67673806 -0.05131857 10.3125 -0.0612793 C11.21388702 -0.06535482 12.11527405 -0.06943035 13.04397583 -0.07362938 C17.82114433 -0.09450854 22.598284 -0.10879842 27.37548828 -0.11816406 C32.29361215 -0.12919147 37.21127893 -0.16354334 42.12924194 -0.20333576 C45.92300207 -0.22958602 49.71665511 -0.23786367 53.51049805 -0.24144554 C55.32205264 -0.24629514 57.13360298 -0.25786239 58.94506836 -0.27648354 C72.13517627 -0.40356967 82.22190388 0.34376235 92.265625 9.81762695 C98.54327537 17.05369723 101.4521308 24.5943728 101.50537109 34.04150391 C101.51763733 35.24202393 101.51763733 35.24202393 101.53015137 36.46679688 C101.55497055 39.11628475 101.57151184 41.76571919 101.5859375 44.4152832 C101.59126118 45.32074575 101.59658485 46.22620831 101.60206985 47.15910912 C101.62878545 51.95111621 101.64816603 56.74309739 101.66259766 61.53515625 C101.67594206 65.4995834 101.70380593 69.46349647 101.74462891 73.42773438 C101.79394028 78.21637994 101.81871668 83.00455886 101.82582474 87.79344749 C101.83253724 89.61670208 101.84775934 91.43994625 101.87171555 93.2630558 C101.9033668 95.81736056 101.90340455 98.3698667 101.89599609 100.92431641 C101.91240143 101.67414291 101.92880676 102.42396942 101.94570923 103.19651794 C101.87743625 108.96046009 100.26559293 111.28778135 96.3125 115.17700195 C92.82806578 116.91921906 89.11362955 116.76375349 85.3125 116.17700195 C82.23780477 114.47448476 79.90636746 112.36473687 78.3125 109.17700195 C78.20603507 106.76792401 78.15835605 104.38653617 78.15478516 101.97680664 C78.14970444 101.23512741 78.14462372 100.49344818 78.13938904 99.72929382 C78.1286765 98.11582374 78.1200598 96.50233871 78.11326981 94.88884735 C78.10148925 92.33298465 78.08203732 89.77729156 78.06015015 87.22149658 C77.99851515 79.95363024 77.94453692 72.68577979 77.91113281 65.41772461 C77.89015725 60.97378992 77.85482734 56.53016201 77.81037521 52.08640289 C77.79623387 50.39441801 77.78749699 48.70237882 77.78432083 47.01033783 C77.77939793 44.63815868 77.75620425 42.26678928 77.72900391 39.89477539 C77.73201004 39.19948227 77.73501617 38.50418915 77.7381134 37.78782654 C77.66045492 33.21464785 76.88347024 29.98011777 74.3125 26.17700195 C70.37691632 23.76182643 66.2657569 23.9005472 61.77172852 23.9375 C60.65855255 23.93447876 60.65855255 23.93447876 59.52288818 23.93139648 C57.91764765 23.92786156 56.31239316 23.92860499 54.70715523 23.93317223 C52.16357067 23.93878209 49.62043927 23.92957994 47.07688904 23.91596985 C39.84738092 23.87890872 32.61802827 23.86030441 25.38842773 23.87158203 C20.96039023 23.87744145 16.53299243 23.85913494 12.10508537 23.82569313 C10.42145513 23.81775312 8.73775492 23.81899717 7.05414009 23.82971764 C4.69627723 23.84408727 2.34041894 23.82773388 -0.01733398 23.8046875 C-0.70791397 23.81645523 -1.39849396 23.82822296 -2.11000061 23.84034729 C-7.64913968 23.73452468 -9.92295505 21.94541625 -13.6875 18.17700195 C-15.42971711 14.69256773 -15.27425154 10.9781315 -14.6875 7.17700195 C-11.0547261 0.61632074 -6.948671 0.02480623 0 0 Z " fill="#434751" transform="translate(298.6875,55.822998046875)"/>
<path d="M0 0 C3.190558 2.7792716 4.74583204 4.52747924 5.4733429 8.74230957 C5.66239349 12.19150692 5.69274582 15.60817235 5.6640625 19.0625 C5.66884613 20.32715088 5.67362976 21.59180176 5.67855835 22.89477539 C5.68195669 25.56516699 5.67529643 28.23325861 5.65185547 30.90332031 C5.62336582 34.31332742 5.63978135 37.72136686 5.66971779 41.13130188 C5.69220401 44.4001036 5.67642707 47.66867252 5.6640625 50.9375 C5.67418365 52.15638916 5.68430481 53.37527832 5.69473267 54.63110352 C5.56456172 64.05797548 5.56456172 64.05797548 2.59912109 67.72265625 C-1.57105613 71.37655566 -1.57105613 71.37655566 -5 72 C-9.55948936 71.66438229 -12.85646888 71.18884247 -16.10412598 67.8125 C-18.30613473 64.54585383 -18.50564473 62.90265181 -18.51757812 59.00390625 C-18.53018677 57.81917725 -18.54279541 56.63444824 -18.55578613 55.41381836 C-18.54768921 54.1428833 -18.53959229 52.87194824 -18.53125 51.5625 C-18.5350769 50.24967041 -18.53890381 48.93684082 -18.54284668 47.58422852 C-18.54873166 44.81019185 -18.54021219 42.03667174 -18.52148438 39.26269531 C-18.49869409 35.71493919 -18.51182273 32.16839352 -18.53577423 28.62068176 C-18.55374135 25.22619196 -18.54114505 21.83202415 -18.53125 18.4375 C-18.53934692 17.16656494 -18.54744385 15.89562988 -18.55578613 14.58618164 C-18.54317749 13.40145264 -18.53056885 12.21672363 -18.51757812 10.99609375 C-18.51439575 9.95638428 -18.51121338 8.9166748 -18.50793457 7.84545898 C-17.86794054 4.26020045 -16.50767171 2.596235 -14 0 C-9.29008418 -2.46200145 -4.68351347 -2.526751 0 0 Z " fill="#434751" transform="translate(331,250)"/>
<path d="M0 0 C3.190558 2.7792716 4.74583204 4.52747924 5.4733429 8.74230957 C5.66239349 12.19150692 5.69274582 15.60817235 5.6640625 19.0625 C5.66884613 20.32715088 5.67362976 21.59180176 5.67855835 22.89477539 C5.68195669 25.56516699 5.67529643 28.23325861 5.65185547 30.90332031 C5.62336582 34.31332742 5.63978135 37.72136686 5.66971779 41.13130188 C5.69220401 44.4001036 5.67642707 47.66867252 5.6640625 50.9375 C5.67418365 52.15638916 5.68430481 53.37527832 5.69473267 54.63110352 C5.56456172 64.05797548 5.56456172 64.05797548 2.59912109 67.72265625 C-1.57105613 71.37655566 -1.57105613 71.37655566 -5 72 C-9.55948936 71.66438229 -12.85646888 71.18884247 -16.10412598 67.8125 C-18.30613473 64.54585383 -18.50564473 62.90265181 -18.51757812 59.00390625 C-18.53018677 57.81917725 -18.54279541 56.63444824 -18.55578613 55.41381836 C-18.54768921 54.1428833 -18.53959229 52.87194824 -18.53125 51.5625 C-18.5350769 50.24967041 -18.53890381 48.93684082 -18.54284668 47.58422852 C-18.54873166 44.81019185 -18.54021219 42.03667174 -18.52148438 39.26269531 C-18.49869409 35.71493919 -18.51182273 32.16839352 -18.53577423 28.62068176 C-18.55374135 25.22619196 -18.54114505 21.83202415 -18.53125 18.4375 C-18.53934692 17.16656494 -18.54744385 15.89562988 -18.55578613 14.58618164 C-18.54317749 13.40145264 -18.53056885 12.21672363 -18.51757812 10.99609375 C-18.51439575 9.95638428 -18.51121338 8.9166748 -18.50793457 7.84545898 C-17.86794054 4.26020045 -16.50767171 2.596235 -14 0 C-9.29008418 -2.46200145 -4.68351347 -2.526751 0 0 Z " fill="#434751" transform="translate(274,250)"/>
<path d="M0 0 C2.42772107 1.97875895 2.98046361 2.94139082 4 6 C4.10837114 7.89023086 4.15884355 9.78399829 4.17700195 11.67724609 C4.18983719 12.84210541 4.20267242 14.00696472 4.21589661 15.2071228 C4.22328354 16.46650665 4.23067047 17.7258905 4.23828125 19.0234375 C4.246353 20.31690094 4.25442474 21.61036438 4.26274109 22.94302368 C4.27775213 25.68174101 4.28759825 28.42043254 4.29516602 31.15917969 C4.30623393 34.66202125 4.34064435 38.16422816 4.38033772 41.66684532 C4.41280992 45.01485057 4.41728248 48.36278693 4.42578125 51.7109375 C4.44328934 52.96627289 4.46079742 54.22160828 4.47883606 55.51498413 C4.47591049 56.68614777 4.47298492 57.8573114 4.4699707 59.06396484 C4.47877007 60.60593033 4.47877007 60.60593033 4.48774719 62.17904663 C3.87111643 65.74541594 2.48093707 67.41469765 0 70 C-4.20741152 72.01955753 -7.88873971 72.35644198 -12.3125 70.9375 C-16.00818889 68.27316615 -18.65849517 65.83325593 -19.5146637 61.23719788 C-19.52086227 60.23603439 -19.52706085 59.23487091 -19.53344727 58.20336914 C-19.5492836 57.06190933 -19.56511993 55.92044952 -19.58143616 54.74440002 C-19.57647629 53.52034958 -19.57151642 52.29629913 -19.56640625 51.03515625 C-19.57260483 49.76909042 -19.57880341 48.5030246 -19.58518982 47.19859314 C-19.59229035 44.52253969 -19.5910588 41.84799084 -19.57641602 39.17211914 C-19.55923794 35.75429268 -19.5827156 32.338149 -19.61790562 28.92051029 C-19.6452331 25.64620631 -19.63513951 22.37204205 -19.62890625 19.09765625 C-19.64216446 17.87563004 -19.65542267 16.65360382 -19.66908264 15.39454651 C-19.56553849 5.93816604 -19.56553849 5.93816604 -16.60131836 2.27514648 C-11.10367435 -2.53316365 -6.71689097 -2.57858174 0 0 Z " fill="#434751" transform="translate(139,250)"/>
<path d="M0 0 C3.58038174 2.60223847 5.69738218 5.46221618 6.55722046 9.83157349 C6.77734617 13.28825108 6.80532836 16.69669132 6.76171875 20.16015625 C6.76508743 21.42339218 6.76845612 22.68662811 6.77192688 23.98814392 C6.77162845 26.6529462 6.75955415 29.3144773 6.72729492 31.97875977 C6.68747052 35.38094541 6.69683937 38.78085547 6.72152996 42.18311405 C6.7391769 45.44641674 6.71771678 48.70938842 6.69921875 51.97265625 C6.7096949 53.79628441 6.7096949 53.79628441 6.72038269 55.65675354 C6.56359734 65.05435343 6.56359734 65.05435343 3.60473633 68.72436523 C-0.24178232 72.0848864 -2.37339504 73.02904652 -7.5 72.9375 C-11.66166007 71.82276962 -13.27978168 70.28026327 -16 67 C-17.30515178 64.38969643 -17.14138712 62.45129711 -17.16113281 59.52807617 C-17.17074036 58.38316208 -17.1803479 57.23824799 -17.19024658 56.05863953 C-17.19449646 54.81596817 -17.19874634 53.57329681 -17.203125 52.29296875 C-17.20882507 51.02028641 -17.21452515 49.74760406 -17.22039795 48.43635559 C-17.2298593 45.73870262 -17.23675014 43.0411612 -17.24023438 40.34350586 C-17.2457118 36.89343566 -17.2697232 33.44376159 -17.29820633 29.99381542 C-17.32135968 26.69772994 -17.32328454 23.40162417 -17.328125 20.10546875 C-17.3404718 18.86887009 -17.3528186 17.63227142 -17.36553955 16.35820007 C-17.36253845 15.2038295 -17.35953735 14.04945892 -17.35644531 12.86010742 C-17.36009094 11.84687912 -17.36373657 10.83365082 -17.36749268 9.78971863 C-16.93341277 6.49452154 -15.98071914 4.65250867 -14 2 C-9.04514527 -0.85857004 -5.49667075 -1.79891043 0 0 Z " fill="#434751" transform="translate(230,249)"/>
<path d="M0 0 C2.58297781 2.18991597 4.48415844 3.96831688 6 7 C6.10621157 8.82167158 6.14880722 10.6472002 6.16113281 12.47192383 C6.17074036 13.61683792 6.1803479 14.76175201 6.19024658 15.94136047 C6.19449646 17.18403183 6.19874634 18.42670319 6.203125 19.70703125 C6.20882507 20.97971359 6.21452515 22.25239594 6.22039795 23.56364441 C6.2298593 26.26129738 6.23675014 28.9588388 6.24023438 31.65649414 C6.2457118 35.10656434 6.2697232 38.55623841 6.29820633 42.00618458 C6.32135968 45.30227006 6.32328454 48.59837583 6.328125 51.89453125 C6.3404718 53.13112991 6.3528186 54.36772858 6.36553955 55.64179993 C6.36253845 56.7961705 6.35953735 57.95054108 6.35644531 59.13989258 C6.36009094 60.15312088 6.36373657 61.16634918 6.36749268 62.21028137 C5.93319918 65.50709985 4.98486855 67.34809754 3 70 C-0.52290564 71.99409753 -3.00259319 73 -7.0625 73 C-11.29810097 71.55809329 -14.93998226 69.12003547 -17 65 C-17.12142292 63.18933715 -17.18006994 61.37431755 -17.20874023 59.55981445 C-17.22803085 58.42135574 -17.24732147 57.28289703 -17.26719666 56.10993958 C-17.32485964 50.89113115 -17.37453851 45.67240582 -17.4050293 40.45336914 C-17.42280681 37.70126426 -17.45756415 34.95019106 -17.50756836 32.19848633 C-17.57954617 28.23262939 -17.60202677 24.26726206 -17.62109375 20.30078125 C-17.64892441 19.07450516 -17.67675507 17.84822906 -17.70542908 16.58479309 C-17.68978327 10.07599631 -17.32645716 5.92794496 -12.68128967 1.16130066 C-8.60357412 -1.65525965 -4.67387052 -1.1479682 0 0 Z " fill="#434751" transform="translate(180,249)"/>
<path d="M0 0 C3.94543226 3.58289514 5.31466967 5.91451837 5.64697266 11.26757812 C5.67983482 13.35521789 5.68388942 15.44344575 5.6640625 17.53125 C5.66884613 18.64052856 5.67362976 19.74980713 5.67855835 20.8927002 C5.68195338 23.23268048 5.67277895 25.57270845 5.65185547 27.91259766 C5.62508696 31.48838351 5.65161965 35.0610302 5.68359375 38.63671875 C5.68028959 40.91406941 5.67388322 43.19141812 5.6640625 45.46875 C5.67418365 46.53452271 5.68430481 47.60029541 5.69473267 48.69836426 C5.56458721 56.96613532 5.56458721 56.96613532 2.58300781 60.65014648 C-0.84746313 63.77096717 -3.38479806 64.87739501 -8 65 C-11.98248273 63.89012776 -14.21646274 63.07293288 -16.67396545 59.70776367 C-18.10819797 56.77905966 -18.38456744 54.9753457 -18.40405273 51.73828125 C-18.41673691 50.71371826 -18.42942108 49.68915527 -18.44248962 48.63354492 C-18.43955399 47.5376001 -18.43661835 46.44165527 -18.43359375 45.3125 C-18.4388356 44.17723877 -18.44407745 43.04197754 -18.44947815 41.87231445 C-18.4558938 39.47510597 -18.45456731 37.07786598 -18.44604492 34.68066406 C-18.43753042 31.0131023 -18.46631253 27.34709564 -18.49804688 23.6796875 C-18.49965887 21.3489588 -18.49908138 19.01822734 -18.49609375 16.6875 C-18.50732773 15.59155518 -18.51856171 14.49561035 -18.53013611 13.36645508 C-18.46065754 5.77818761 -18.46065754 5.77818761 -16.14086914 1.859375 C-11.2791133 -2.36312842 -5.66887093 -3.0583504 0 0 Z " fill="#434751" transform="translate(331,136)"/>
<path d="M0 0 C3.94543226 3.58289514 5.31466967 5.91451837 5.64697266 11.26757812 C5.67983482 13.35521789 5.68388942 15.44344575 5.6640625 17.53125 C5.66884613 18.64052856 5.67362976 19.74980713 5.67855835 20.8927002 C5.68195338 23.23268048 5.67277895 25.57270845 5.65185547 27.91259766 C5.62508696 31.48838351 5.65161965 35.0610302 5.68359375 38.63671875 C5.68028959 40.91406941 5.67388322 43.19141812 5.6640625 45.46875 C5.67418365 46.53452271 5.68430481 47.60029541 5.69473267 48.69836426 C5.56458721 56.96613532 5.56458721 56.96613532 2.58300781 60.65014648 C-0.84746313 63.77096717 -3.38479806 64.87739501 -8 65 C-11.98248273 63.89012776 -14.21646274 63.07293288 -16.67396545 59.70776367 C-18.10819797 56.77905966 -18.38456744 54.9753457 -18.40405273 51.73828125 C-18.41673691 50.71371826 -18.42942108 49.68915527 -18.44248962 48.63354492 C-18.43955399 47.5376001 -18.43661835 46.44165527 -18.43359375 45.3125 C-18.4388356 44.17723877 -18.44407745 43.04197754 -18.44947815 41.87231445 C-18.4558938 39.47510597 -18.45456731 37.07786598 -18.44604492 34.68066406 C-18.43753042 31.0131023 -18.46631253 27.34709564 -18.49804688 23.6796875 C-18.49965887 21.3489588 -18.49908138 19.01822734 -18.49609375 16.6875 C-18.50732773 15.59155518 -18.51856171 14.49561035 -18.53013611 13.36645508 C-18.46065754 5.77818761 -18.46065754 5.77818761 -16.14086914 1.859375 C-11.2791133 -2.36312842 -5.66887093 -3.0583504 0 0 Z " fill="#434751" transform="translate(274,136)"/>
<path d="M0 0 C2.42772107 1.97875895 2.98046361 2.94139082 4 6 C4.10695423 7.63990938 4.1586452 9.28371104 4.17700195 10.92700195 C4.18983719 11.92846756 4.20267242 12.92993317 4.21589661 13.96174622 C4.22328354 15.04300278 4.23067047 16.12425934 4.23828125 17.23828125 C4.246353 18.35180466 4.25442474 19.46532806 4.26274109 20.6125946 C4.27657728 22.97047368 4.28730151 25.32837274 4.29516602 27.6862793 C4.31238281 31.28798434 4.356275 34.88877248 4.40039062 38.49023438 C4.41051733 40.78124325 4.4190335 43.07225993 4.42578125 45.36328125 C4.44328934 46.43846512 4.46079742 47.51364899 4.47883606 48.62141418 C4.46117841 54.72296845 4.1263105 58.3776461 0 63 C-2.57094893 64.53196751 -5.01965314 64.92200961 -8 65 C-13.25375223 63.51143687 -16.22026396 61.69314262 -19 57 C-19.60741798 53.19079261 -19.58424172 49.41743628 -19.56640625 45.56640625 C-19.57260483 44.45571274 -19.57880341 43.34501923 -19.58518982 42.20066833 C-19.59228507 39.85473506 -19.58911921 37.50875141 -19.57641602 35.1628418 C-19.56256114 31.57831873 -19.59661642 27.99641163 -19.63476562 24.41210938 C-19.63571695 22.1302077 -19.6338573 19.84830276 -19.62890625 17.56640625 C-19.64216446 16.49749649 -19.65542267 15.42858673 -19.66908264 14.32728577 C-19.565555 6.030059 -19.565555 6.030059 -16.60131836 2.37084961 C-11.1720663 -2.57738753 -6.7298065 -2.58353995 0 0 Z " fill="#434751" transform="translate(139,136)"/>
<path d="M0 0 C3.37215365 2.56285708 5.64766518 5.38139017 6.55722046 9.55984497 C6.77616844 12.59859048 6.80561378 15.58256204 6.76171875 18.62890625 C6.76508743 19.73676987 6.76845612 20.84463348 6.77192688 21.98606873 C6.77162882 24.32010558 6.75645401 26.65418238 6.72729492 28.98803711 C6.68758249 32.55509076 6.70661417 36.11843102 6.73242188 39.68554688 C6.72486333 41.95834771 6.71391044 44.23114033 6.69921875 46.50390625 C6.7096949 48.09785973 6.7096949 48.09785973 6.72038269 49.72401428 C6.56363573 57.96243643 6.56363573 57.96243643 3.60473633 61.62866211 C-0.17278311 65.06769541 -2.33562452 65.96973863 -7.4375 66.0625 C-12.25774737 64.62488236 -14.54634113 62.37456886 -17 58 C-17.82534098 54.0983122 -17.77197028 50.31152091 -17.69140625 46.3359375 C-17.69003159 45.22570221 -17.68865692 44.11546692 -17.6872406 42.97158813 C-17.67820664 40.63330417 -17.65464768 38.29503648 -17.61743164 35.95703125 C-17.5625699 32.37955783 -17.55590363 28.8044133 -17.55664062 25.2265625 C-17.5418961 22.95050071 -17.52441156 20.67445468 -17.50390625 18.3984375 C-17.50056778 17.33064056 -17.49722931 16.26284363 -17.49378967 15.16268921 C-17.31378796 5.77598563 -17.31378796 5.77598563 -14 2 C-9.04514527 -0.85857004 -5.49667075 -1.79891043 0 0 Z " fill="#434751" transform="translate(230,135)"/>
<path d="M0 0 C2.58297781 2.18991597 4.48415844 3.96831688 6 7 C6.12039724 8.59618121 6.17988036 10.19715216 6.20874023 11.79760742 C6.23767616 13.29507759 6.23767616 13.29507759 6.26719666 14.82279968 C6.32492471 19.40046639 6.37423393 23.97797444 6.4050293 28.5559082 C6.4265977 30.96816331 6.46068626 33.3803404 6.50756836 35.79223633 C6.57460163 39.27200241 6.60203738 42.75014783 6.62109375 46.23046875 C6.64892441 47.30362839 6.67675507 48.37678802 6.70542908 49.48246765 C6.6884887 55.67412868 5.98674429 59.2498126 1.63246155 63.7726593 C-1.22378865 65.92008637 -3.4930812 66.1252471 -7 66 C-11.73259471 64.32967246 -14.41993977 62.28927402 -17 58 C-17.62070127 54.20417673 -17.60811758 50.4414994 -17.6015625 46.6015625 C-17.61013275 45.49324066 -17.618703 44.38491882 -17.62753296 43.24301147 C-17.63900561 40.90129322 -17.64003026 38.5595037 -17.63134766 36.21777344 C-17.62503346 32.64393796 -17.67193095 29.07342535 -17.72265625 25.5 C-17.72720324 23.22135833 -17.72860876 20.94270779 -17.7265625 18.6640625 C-17.74498199 17.60031403 -17.76340149 16.53656555 -17.78237915 15.44058228 C-17.70633233 9.30931476 -16.94310939 5.72919988 -12.67758179 1.21884155 C-8.65565138 -1.70327881 -4.6678175 -1.14648149 0 0 Z " fill="#434751" transform="translate(180,135)"/>
</svg>
